<svg width="24" height="24" viewBox="0 0 24 24" fill="none" xmlns="http://www.w3.org/2000/svg">
<path d="M21.7003 12.0003C21.8903 12.3703 22.0003 12.7903 22.0003 13.2203C22.0003 14.6403 20.8403 15.7903 19.4103 15.7903H16.8403C17.5603 18.6303 17.0903 20.5403 15.4403 21.4903C15.0503 21.7103 13.7303 22.2603 12.7703 21.8603C12.3503 21.6803 12.0603 21.3403 11.9403 20.8503C11.6403 19.6403 11.3503 18.5003 10.6803 17.5103C10.3403 17.0203 9.87031 16.4503 9.32031 16.1103V14.4503V14.3103V5.73029V5.07031V4.16028L10.6803 3.71033C11.4403 3.45033 12.2403 3.32031 13.0503 3.32031H18.1803C19.6103 3.32031 20.7803 4.48033 20.7803 5.90033C20.7803 5.98033 20.7803 6.06032 20.7703 6.14032C21.5203 6.61032 22.0003 7.43033 22.0003 8.34033C22.0003 8.77033 21.8903 9.1903 21.7003 9.5603C21.8903 9.9303 22.0003 10.3503 22.0003 10.7803C22.0003 11.2103 21.8903 11.6303 21.7003 12.0003Z" fill="#FF3F3F"/>
<path d="M6.25 17.38C6.83 17.38 7.36001 17.22 7.82001 16.94V14.31V5.07001V2.44C7.36001 2.16 6.83 2 6.25 2H2.75C2.34 2 2 2.34 2 2.75V16.62C2 17.04 2.34 17.38 2.75 17.38H6.25ZM6.42999 6.03998C6.42999 6.46998 6.09 6.82001 5.66 6.82001C5.23 6.82001 4.88 6.46998 4.88 6.03998C4.88 5.60998 5.23 5.27002 5.66 5.27002C6.09 5.27002 6.42999 5.60998 6.42999 6.03998Z" fill="#FF3F3F"/>
</svg>
