<svg width="24" height="24" viewBox="0 0 24 24" fill="none" xmlns="http://www.w3.org/2000/svg">
<path d="M18.9998 7.55043C18.8298 7.17043 18.3898 7.00043 18.0098 7.17043C17.6298 7.34043 17.4598 7.78043 17.6298 8.16043C17.9698 8.94043 18.1498 9.77043 18.1498 10.6304V13.3804C18.1498 16.7604 15.3998 19.5004 12.0298 19.5004C11.3598 19.5004 10.6898 19.3904 10.0598 19.1804C9.66978 19.0504 9.23977 19.2604 9.10977 19.6504C8.97977 20.0404 9.18977 20.4704 9.57977 20.6004C10.3698 20.8704 11.1898 21.0004 12.0298 21.0004C16.2298 21.0004 19.6498 17.5804 19.6498 13.3804V10.6304C19.6498 9.56043 19.4298 8.52043 18.9998 7.55043Z" fill="white"/>
<path d="M6.01019 14.57C5.81019 13.67 5.84018 12.73 5.87018 11.74C5.88018 11.37 5.8902 10.99 5.8902 10.62C5.8902 7.24 8.64019 4.5 12.0102 4.5C13.5802 4.5 15.0702 5.09 16.2102 6.17C16.5102 6.45 16.9902 6.44 17.2702 6.14C17.5502 5.84 17.5402 5.36 17.2402 5.08C15.8302 3.74 13.9802 3 12.0202 3C7.82017 3 4.40017 6.42 4.40017 10.62C4.40017 10.98 4.39019 11.33 4.38019 11.69C4.35019 12.73 4.31017 13.81 4.55017 14.9C4.87017 16.32 5.56019 17.63 6.54019 18.67C6.69019 18.83 6.89018 18.91 7.09018 18.91C7.27018 18.91 7.46019 18.84 7.60019 18.71C7.90019 18.43 7.92019 17.95 7.63019 17.65C6.83019 16.8 6.27019 15.74 6.01019 14.57Z" fill="white"/>
<path d="M12.0204 17.2497C12.4904 17.2497 12.9504 17.1697 13.3904 16.9997C13.7804 16.8497 13.9704 16.4197 13.8304 16.0297C13.6804 15.6397 13.2504 15.4497 12.8604 15.5897C12.5904 15.6897 12.3104 15.7397 12.0304 15.7397C10.7204 15.7397 9.65039 14.6697 9.65039 13.3597V10.9297C9.65039 10.5197 9.31039 10.1797 8.90039 10.1797C8.49039 10.1797 8.15039 10.5197 8.15039 10.9297V13.3597C8.15039 15.5097 9.89039 17.2497 12.0204 17.2497Z" fill="white"/>
<path d="M14.3703 13.77C14.3003 14.18 14.5803 14.56 14.9903 14.63C15.0303 14.64 15.0703 14.64 15.1103 14.64C15.4703 14.64 15.7903 14.38 15.8503 14.01C15.8803 13.8 15.9003 13.59 15.9003 13.38V10.63C15.9003 8.49 14.1603 6.75 12.0203 6.75C11.4303 6.75 10.8603 6.88 10.3303 7.14C9.96032 7.32 9.80034 7.77 9.98034 8.14C10.1603 8.51 10.6103 8.67 10.9803 8.49C11.3003 8.33 11.6503 8.25 12.0203 8.25C13.3303 8.25 14.4003 9.32 14.4003 10.63V13.38C14.4003 13.51 14.3903 13.64 14.3703 13.77Z" fill="white"/>
<path d="M11.2695 11.0703V12.6103C11.2695 13.0203 11.6095 13.3603 12.0195 13.3603C12.4295 13.3603 12.7695 13.0203 12.7695 12.6103V11.0703C12.7695 10.6603 12.4295 10.3203 12.0195 10.3203C11.6095 10.3203 11.2695 10.6503 11.2695 11.0703Z" fill="white"/>
</svg>
