<svg width="24" height="24" viewBox="0 0 24 24" fill="none" xmlns="http://www.w3.org/2000/svg">
<path d="M21.7003 11.9999C21.8903 11.6299 22.0003 11.21 22.0003 10.78C22.0003 9.35997 20.8403 8.20996 19.4103 8.20996H16.8403C17.5603 5.36996 17.0903 3.45995 15.4403 2.50995C15.0503 2.28995 13.7303 1.73995 12.7703 2.13995C12.3503 2.31995 12.0603 2.65996 11.9403 3.14996C11.6403 4.35996 11.3503 5.49993 10.6803 6.48993C10.3403 6.97993 9.87031 7.54995 9.32031 7.88995V9.54993V9.68994V18.27V18.9299V19.84L10.6803 20.2899C11.4403 20.5499 12.2403 20.6799 13.0503 20.6799H18.1803C19.6103 20.6799 20.7803 19.5199 20.7803 18.0999C20.7803 18.0199 20.7803 17.9399 20.7703 17.8599C21.5203 17.3899 22.0003 16.5699 22.0003 15.6599C22.0003 15.2299 21.8903 14.8099 21.7003 14.4399C21.8903 14.0699 22.0003 13.6499 22.0003 13.2199C22.0003 12.7899 21.8903 12.3699 21.7003 11.9999Z" fill="#6FCD4C"/>
<path d="M2.75 6.62012C2.34 6.62012 2 6.96013 2 7.38013V21.2501C2 21.6601 2.34 22.0001 2.75 22.0001H6.25C6.83 22.0001 7.36 21.8401 7.82 21.5601V18.9301V9.69012V7.06012C7.36 6.78012 6.83 6.62012 6.25 6.62012H2.75ZM5.66 18.7301C5.23 18.7301 4.88 18.3901 4.88 17.9601C4.88 17.5301 5.23 17.1801 5.66 17.1801C6.09 17.1801 6.43 17.5301 6.43 17.9601C6.43 18.3901 6.09 18.7301 5.66 18.7301Z" fill="#6FCD4C"/>
</svg>
