<svg width="24" height="24" viewBox="0 0 24 24" fill="none" xmlns="http://www.w3.org/2000/svg">
<path d="M18.48 2H5.53C3.58 2 2 3.58 2 5.53V18.47C2 20.42 3.58 22 5.53 22H18.48C20.42 22 22 20.42 22 18.47V5.53C22 3.58 20.42 2 18.48 2ZM18.37 12.75H16.78C16.36 12.75 16.03 12.41 16.03 12C16.03 11.59 16.36 11.25 16.78 11.25H18.37C18.78 11.25 19.12 11.59 19.12 12C19.12 12.41 18.78 12.75 18.37 12.75ZM4.88 12C4.88 11.59 5.22 11.25 5.63 11.25H7.23C7.64 11.25 7.98 11.59 7.98 12C7.98 12.41 7.64 12.75 7.23 12.75H5.63C5.22 12.75 4.88 12.41 4.88 12ZM15.38 9.37C15.19 9.37 14.99 9.29999 14.85 9.14999C14.55 8.85999 14.55 8.39 14.85 8.09L15.97 6.97C16.27 6.67 16.74 6.67 17.03 6.97C17.33 7.26 17.33 7.74 17.03 8.03L15.91 9.14999C15.76 9.29999 15.57 9.37 15.38 9.37ZM17.03 15.97C17.33 16.26 17.33 16.74 17.03 17.03C16.89 17.18 16.69 17.25 16.5 17.25C16.31 17.25 16.12 17.18 15.97 17.03L14.85 15.91C14.55 15.61 14.55 15.14 14.85 14.85C15.14 14.55 15.61 14.55 15.91 14.85L17.03 15.97ZM12 7.98001C11.59 7.98001 11.25 7.64001 11.25 7.23001V5.63C11.25 5.22 11.59 4.88 12 4.88C12.41 4.88 12.75 5.22 12.75 5.63V7.23001C12.75 7.64001 12.41 7.98001 12 7.98001ZM12.75 16.77V18.37C12.75 18.78 12.41 19.12 12 19.12C11.59 19.12 11.25 18.78 11.25 18.37V16.77C11.25 16.36 11.59 16.02 12 16.02C12.41 16.02 12.75 16.36 12.75 16.77ZM9.15 9.14999C9.01 9.29999 8.82 9.37 8.62 9.37C8.43 9.37 8.24 9.29999 8.09 9.14999L6.97 8.03C6.68 7.74 6.68 7.26 6.97 6.97C7.26 6.67 7.74 6.67 8.03 6.97L9.15 8.09C9.45 8.39 9.45 8.85999 9.15 9.14999ZM9.15 15.91L8.03 17.03C7.88 17.18 7.69 17.25 7.5 17.25C7.31 17.25 7.12 17.18 6.97 17.03C6.68 16.74 6.68 16.26 6.97 15.97L8.09 14.85C8.39 14.55 8.86 14.55 9.15 14.85C9.45 15.14 9.45 15.61 9.15 15.91Z" fill="white"/>
</svg>
