<svg width="20" height="16" viewBox="0 0 20 16" fill="none" xmlns="http://www.w3.org/2000/svg">
<path d="M14.2546 7.54167L11.9629 5.25" stroke="white" stroke-width="1.5" stroke-linecap="round" stroke-linejoin="round"/>
<path d="M18.8382 2.95801L14.2549 7.54134" stroke="white" stroke-width="1.5" stroke-linecap="round" stroke-linejoin="round"/>
<path d="M6.66047 7.37C8.69047 7.37 10.3505 5.72 10.3505 3.69C10.3505 1.66 8.70047 0 6.66047 0C4.63047 0 2.98047 1.65 2.98047 3.69C2.98047 5.73 4.63047 7.37 6.66047 7.37Z" fill="white"/>
<path d="M9.54 8.7998H4.27C1.91 8.7998 0 10.7198 0 13.0698V13.7498C0 14.7098 0.79 15.4998 1.75 15.4998H12.06C13.02 15.4998 13.81 14.7098 13.81 13.7498V13.0798C13.81 10.7198 11.89 8.7998 9.54 8.7998Z" fill="white"/>
</svg>
