<svg width="24" height="24" viewBox="0 0 24 24" fill="none" xmlns="http://www.w3.org/2000/svg">
<path d="M8.3998 7.35C8.5398 7.2 8.7398 7.13 8.9298 7.13C9.1198 7.13 9.3098 7.2 9.4598 7.35L11.2598 9.15V2.75C11.2598 2.54 11.3498 2.35 11.4798 2.22C11.6198 2.08 11.8098 2 12.0098 2C12.2098 2 12.3998 2.08 12.5398 2.22C12.6698 2.35 12.7598 2.54 12.7598 2.75V9.15L14.5598 7.35C14.7098 7.2 14.8998 7.13 15.0898 7.13C15.2798 7.13 15.4798 7.2 15.6198 7.35C15.9198 7.64 15.9198 8.11 15.6198 8.41L12.5698 11.47C12.4298 11.62 12.2298 11.72 12.0098 11.72C11.7898 11.72 11.5898 11.62 11.4498 11.47L8.3998 8.41C8.0998 8.11 8.0998 7.64 8.3998 7.35Z" fill="white"/>
<path d="M12.0105 11.72C11.8105 11.72 11.6205 11.64 11.4805 11.5H12.5405C12.4005 11.64 12.2105 11.72 12.0105 11.72Z" fill="white"/>
<path d="M17.1497 12.2695H6.86975C4.18975 12.2695 2.00977 14.4495 2.00977 17.1295C2.00977 19.8095 4.18975 21.9995 6.86975 21.9995H17.1497C19.8298 21.9995 22.0098 19.8095 22.0098 17.1295C22.0098 14.4495 19.8298 12.2695 17.1497 12.2695ZM13.0398 17.8795H10.9798C10.5698 17.8795 10.2298 17.5495 10.2298 17.1295C10.2298 16.7195 10.5698 16.3795 10.9798 16.3795H13.0398C13.4498 16.3795 13.7898 16.7195 13.7898 17.1295C13.7898 17.5495 13.4498 17.8795 13.0398 17.8795Z" fill="white"/>
</svg>
