<svg width="118" height="118" viewBox="0 0 118 118" fill="none" xmlns="http://www.w3.org/2000/svg">
<g filter="url(#filter0_d_3_535)">
<circle cx="59" cy="46" r="20" fill="url(#paint0_linear_3_535)"/>
<circle cx="59" cy="46" r="19.5" stroke="white"/>
</g>
<path d="M65.85 53H52.15C50.83 53 49.75 51.93 49.75 50.6V41.4C49.75 40.08 50.82 39 52.15 39H65.85C67.17 39 68.25 40.07 68.25 41.4V50.6C68.25 51.93 67.18 53 65.85 53Z" stroke="white" stroke-width="1.5" stroke-linecap="round" stroke-linejoin="round"/>
<path d="M67.22 39.7695L60.35 46.5895C59.58 47.3595 58.42 47.3595 57.64 46.5895L50.77 39.7695" stroke="white" stroke-width="1.5" stroke-linecap="round" stroke-linejoin="round"/>
<path d="M61.1299 45.9199L67.2199 51.8299" stroke="white" stroke-width="1.5" stroke-linecap="round" stroke-linejoin="round"/>
<path d="M50.78 51.83L56.94 46" stroke="white" stroke-width="1.5" stroke-linecap="round" stroke-linejoin="round"/>
<defs>
<filter id="filter0_d_3_535" x="0" y="0" width="118" height="118" filterUnits="userSpaceOnUse" color-interpolation-filters="sRGB">
<feFlood flood-opacity="0" result="BackgroundImageFix"/>
<feColorMatrix in="SourceAlpha" type="matrix" values="0 0 0 0 0 0 0 0 0 0 0 0 0 0 0 0 0 0 127 0" result="hardAlpha"/>
<feOffset dy="13"/>
<feGaussianBlur stdDeviation="19.5"/>
<feComposite in2="hardAlpha" operator="out"/>
<feColorMatrix type="matrix" values="0 0 0 0 0.968627 0 0 0 0 0.560784 0 0 0 0 0.541176 0 0 0 0.47 0"/>
<feBlend mode="normal" in2="BackgroundImageFix" result="effect1_dropShadow_3_535"/>
<feBlend mode="normal" in="SourceGraphic" in2="effect1_dropShadow_3_535" result="shape"/>
</filter>
<linearGradient id="paint0_linear_3_535" x1="28.3902" y1="10.6154" x2="78.1779" y2="23.0999" gradientUnits="userSpaceOnUse">
<stop stop-color="#FECE76"/>
<stop offset="1" stop-color="#F78B88"/>
</linearGradient>
</defs>
</svg>
