<svg width="20" height="20" viewBox="0 0 20 20" fill="none" xmlns="http://www.w3.org/2000/svg">
<path d="M12.52 16.6302C11.71 16.8402 10.87 16.9402 10 16.9402C6.73 16.9402 3.8 15.4102 1.8 12.9902C0.4 11.3002 0.4 8.69018 1.8 7.01018C1.96 6.81018 2.14 6.62018 2.32 6.43018" stroke="#32363C" stroke-width="1.5" stroke-linecap="round" stroke-linejoin="round"/>
<path d="M18.1998 12.9901C17.3998 13.9501 16.4498 14.7701 15.3998 15.4101L4.58984 4.59006C6.17984 3.61006 8.01984 3.06006 9.99984 3.06006C13.2698 3.06006 16.1998 4.59006 18.1998 7.01006C19.5998 8.69006 19.5998 11.3101 18.1998 12.9901Z" stroke="#32363C" stroke-width="1.5" stroke-linecap="round" stroke-linejoin="round"/>
<path d="M13.0803 9.99992C13.0803 10.8499 12.7303 11.6199 12.1803 12.1799L7.82031 7.81992C8.37031 7.25992 9.15031 6.91992 10.0003 6.91992C11.7103 6.91992 13.0803 8.28992 13.0803 9.99992Z" stroke="#32363C" stroke-width="1.5" stroke-linecap="round" stroke-linejoin="round"/>
<path d="M0.75 0.75L4.59 4.59L7.82 7.82L12.18 12.18L15.41 15.41L19.25 19.25" stroke="#32363C" stroke-width="1.5" stroke-linecap="round" stroke-linejoin="round"/>
</svg>
