<svg width="24" height="24" viewBox="0 0 24 24" fill="none" xmlns="http://www.w3.org/2000/svg">
<path d="M14.52 18.6297C13.71 18.8397 12.87 18.9397 12 18.9397C8.73 18.9397 5.8 17.4097 3.8 14.9897C2.4 13.2997 2.4 10.6897 3.8 9.00969C3.96 8.80969 4.14 8.61969 4.32 8.42969" stroke="#00B2FF" stroke-width="1.5" stroke-linecap="round" stroke-linejoin="round"/>
<path d="M20.1998 14.9896C19.3998 15.9496 18.4498 16.7696 17.3998 17.4096L6.58984 6.58957C8.17984 5.60957 10.0198 5.05957 11.9998 5.05957C15.2698 5.05957 18.1998 6.58957 20.1998 9.00957C21.5998 10.6896 21.5998 13.3096 20.1998 14.9896Z" stroke="#00B2FF" stroke-width="1.5" stroke-linecap="round" stroke-linejoin="round"/>
<path d="M15.0803 11.9999C15.0803 12.8499 14.7303 13.6199 14.1803 14.1799L9.82031 9.81992C10.3703 9.25992 11.1503 8.91992 12.0003 8.91992C13.7103 8.91992 15.0803 10.2899 15.0803 11.9999Z" stroke="#00B2FF" stroke-width="1.5" stroke-linecap="round" stroke-linejoin="round"/>
<path d="M2.75 2.75L6.59 6.59L9.82 9.82L14.18 14.18L17.41 17.41L21.25 21.25" stroke="#00B2FF" stroke-width="1.5" stroke-linecap="round" stroke-linejoin="round"/>
<path d="M14.3299 11.9999C14.3299 13.2899 13.2899 14.3299 11.9999 14.3299C10.7099 14.3299 9.66992 13.2899 9.66992 11.9999C9.66992 10.7099 10.7099 9.66992 11.9999 9.66992C13.2899 9.66992 14.3299 10.7099 14.3299 11.9999Z" fill="white"/>
<path d="M20.7797 8.52957C18.5497 5.84957 15.3497 4.30957 11.9997 4.30957C8.64968 4.30957 5.44969 5.84957 3.22969 8.52957C1.57969 10.5096 1.57969 13.4896 3.22969 15.4696C5.44969 18.1496 8.64968 19.6896 11.9997 19.6896C15.3497 19.6896 18.5497 18.1496 20.7797 15.4696C22.4197 13.4896 22.4197 10.5096 20.7797 8.52957ZM11.9997 15.8296C9.88968 15.8296 8.16969 14.1096 8.16969 11.9996C8.16969 9.88957 9.88968 8.16957 11.9997 8.16957C14.1097 8.16957 15.8297 9.88957 15.8297 11.9996C15.8297 14.1096 14.1097 15.8296 11.9997 15.8296Z" fill="white"/>
</svg>
