<svg
width="62"
height="63"
viewBox="0 0 62 63"
fill="none"
xmlns="https://www.w3.org/2000/svg"
>
<path
    d="M6.42616 46.3589C7.32032 47.253 7.32032 48.7022 6.42616 49.6272C5.96365 50.0589 5.37783 50.3055 4.79199 50.3055C4.17533 50.3055 3.5895 50.0589 3.15783 49.6272C1.21533 47.6847 0.166992 45.1563 0.166992 42.443V10.9005C0.166992 5.31971 4.73035 0.756348 10.3112 0.756348H41.8536C44.9061 0.756348 47.7737 2.11305 49.6853 4.45639C50.5178 5.44305 50.3636 6.92304 49.377 7.72471C48.3903 8.52638 46.9411 8.37219 46.1086 7.41636C45.0603 6.12136 43.5186 5.38135 41.8536 5.38135H10.3112C7.28952 5.38135 4.79199 7.84804 4.79199 10.9005V42.443C4.79199 43.923 5.37782 45.3105 6.42616 46.3589Z"
    fill="white"
/>
<path
    d="M51.6891 10.5918H20.1466C14.5658 10.5918 10.0024 15.1552 10.0024 20.736V52.2784C10.0024 57.8593 14.5658 62.4226 20.1466 62.4226H51.6891C57.2699 62.4226 61.8333 57.8593 61.8333 52.2784V20.736C61.8333 15.1552 57.2699 10.5918 51.6891 10.5918ZM26.0974 20.551C28.4408 20.551 30.3525 22.4626 30.3525 24.8368C30.3525 27.2109 28.4408 29.1227 26.0974 29.1227C23.7233 29.1227 21.8116 27.2109 21.8116 24.8368C21.8116 22.4626 23.7233 20.551 26.0974 20.551ZM57.2083 52.2784C57.2083 55.3309 54.7416 57.7976 51.6891 57.7976H20.1466C17.0941 57.7976 14.6274 55.3309 14.6274 52.2784V51.3535L22.9832 43.0284C23.5999 42.3809 24.6483 42.3809 25.265 43.0284L27.5775 45.3409C29.9208 47.6843 34.0524 47.6843 36.3958 45.3409L46.5707 35.166C47.1874 34.5493 48.2666 34.5493 48.8832 35.166L57.2083 43.4909V52.2784Z"
    fill="white"
/>
</svg>