<svg width="24" height="24" viewBox="0 0 24 24" fill="none" xmlns="http://www.w3.org/2000/svg">
<path d="M9.66047 12.37C11.6905 12.37 13.3505 10.72 13.3505 8.69C13.3505 6.66 11.7005 5 9.66047 5C7.63047 5 5.98047 6.65 5.98047 8.69C5.98047 10.73 7.63047 12.37 9.66047 12.37Z" fill="white"/>
<path d="M12.54 13.7998H7.27C4.91 13.7998 3 15.7198 3 18.0698V18.7498C3 19.7098 3.79 20.4998 4.75 20.4998H15.06C16.02 20.4998 16.81 19.7098 16.81 18.7498V18.0798C16.81 15.7198 14.89 13.7998 12.54 13.7998Z" fill="white"/>
<path d="M19.6136 6.70898L15.3857 11.0002" stroke="white" stroke-width="1.5" stroke-linecap="round" stroke-linejoin="round"/>
<path d="M15.3857 6.70898L19.6136 11.0002" stroke="white" stroke-width="1.5" stroke-linecap="round" stroke-linejoin="round"/>
</svg>
